<?xml version="1.0" standalone="no"?>
<!DOCTYPE svg PUBLIC "-//W3C//DTD SVG 20010904//EN"
 "http://www.w3.org/TR/2001/REC-SVG-20010904/DTD/svg10.dtd">
<svg version="1.0" xmlns="http://www.w3.org/2000/svg"
 width="700.000000pt" height="700.000000pt" viewBox="0 0 700.000000 700.000000"
 preserveAspectRatio="xMidYMid meet">
<metadata>
Created by potrace 1.14, written by Peter Selinger 2001-2017
</metadata>
<g transform="translate(0.000000,700.000000) scale(0.100000,-0.100000)"
fill="#000000" stroke="none">
<path d="M5317 6704 c-3 -3 -11 -7 -19 -8 -50 -10 -306 -141 -421 -216 -46
-30 -64 -37 -78 -30 -39 22 -84 12 -123 -27 -35 -35 -42 -50 -49 -101 -2 -13
-32 -48 -73 -84 -176 -155 -366 -396 -435 -552 l-13 -28 -81 6 c-204 16 -306
20 -520 20 -204 0 -413 -8 -515 -19 -64 -8 -215 -26 -245 -30 -43 -5 -90 -14
-170 -31 -38 -8 -83 -18 -100 -21 -64 -11 -242 -75 -301 -108 -61 -34 -138
-110 -129 -126 3 -4 -1 -14 -9 -21 -13 -14 -216 -333 -263 -415 -25 -43 -33
-113 -19 -163 5 -19 0 -32 -21 -55 -226 -248 -440 -570 -570 -860 -145 -322
-222 -590 -269 -935 -23 -170 -22 -470 1 -650 10 -83 48 -259 71 -334 31 -97
120 -310 146 -348 10 -14 18 -29 18 -32 0 -4 28 -48 62 -99 189 -283 450 -508
785 -677 125 -62 132 -65 258 -112 158 -58 396 -125 512 -142 21 -4 63 -11 93
-16 30 -5 78 -12 105 -15 28 -4 61 -8 75 -10 30 -5 151 -15 241 -21 86 -5 408
-5 489 1 269 18 497 53 705 106 891 228 1458 768 1624 1544 53 247 59 605 16
875 -3 19 -7 49 -10 65 -12 93 -71 329 -111 450 -141 425 -356 801 -657 1150
-56 65 -85 105 -81 115 14 33 12 95 -3 124 -9 17 -73 119 -144 226 -109 168
-132 211 -138 262 -3 21 -71 83 -125 113 -65 36 -234 95 -328 115 -47 9 -56
14 -51 28 25 67 217 343 315 454 27 30 38 35 60 31 15 -3 38 -3 51 1 26 6 97
70 98 89 0 7 2 21 4 31 2 11 0 27 -5 37 -8 13 2 27 43 65 73 68 115 104 162
139 22 16 48 36 57 45 9 8 48 35 87 60 38 25 70 48 70 52 1 11 -66 87 -72 82z"/>
</g>
</svg>
