<?xml version="1.0" encoding="utf-8"?>
<!-- Generator: Adobe Illustrator 22.1.0, SVG Export Plug-In . SVG Version: 6.00 Build 0)  -->

<svg xmlns="http://www.w3.org/2000/svg" x="0px" y="0px" viewBox="0 0 226 226" style=" fill:#000000;">
<g fill="none" fill-rule="nonzero" stroke="none" stroke-width="none" stroke-linecap="butt" stroke-linejoin="miter" stroke-miterlimit="10" stroke-dasharray="" stroke-dashoffset="0" font-family="none" font-weight="none" font-size="none" text-anchor="none" style="mix-blend-mode: normal"><path d="M0,226v-226h226v226z" fill="none" stroke="none" stroke-width="1"></path><g stroke="none" stroke-width="1"><path d="M197.75,143.13333c0,46.6125 -38.1375,68.74167 -84.75,68.74167c-46.6125,0 -84.75,-22.12917 -84.75,-68.74167c0,-27.30833 12.7125,-55.0875 32.95833,-73.92083c11.3,-1.4125 92.28333,-1.4125 104.05417,0.47083c19.775,18.83333 32.4875,46.14167 32.4875,73.45z" fill="#e96924"></path><path d="M58.85417,160.08333c-1.4125,0 -2.35417,-0.94167 -2.35417,-2.35417c0,-40.02083 14.125,-57.44167 14.59583,-57.9125c0.94167,-0.94167 2.35417,-0.94167 3.29583,-0.47083c0.94167,0.94167 0.94167,2.35417 0.47083,3.29583c0,0 -13.65417,16.95 -13.65417,55.0875c0,1.4125 -0.94167,2.35417 -2.35417,2.35417z" fill="#ef905c"></path><path d="M165.2625,69.68333c-11.77083,-2.35417 -92.75417,-2.35417 -104.05417,-0.47083c-2.825,2.825 -5.65,5.65 -8.00417,8.475c0.94167,0.94167 2.35417,1.88333 3.29583,2.825c8.475,4.2375 24.95417,9.41667 56.5,9.41667c31.075,0 47.55417,-5.17917 56.02917,-9.41667c1.4125,-0.94167 2.35417,-1.88333 3.29583,-2.825c-1.88333,-2.825 -4.2375,-5.65 -7.0625,-8.00417z" fill="#de613a"></path><path d="M168.55833,67.8c1.88333,2.825 0.47083,6.59167 -2.35417,8.00417c-6.59167,3.76667 -22.12917,8.94583 -53.20417,8.94583c-31.075,0 -46.6125,-5.17917 -53.675,-8.94583c-2.825,-1.4125 -3.76667,-5.17917 -2.35417,-8.00417l8.475,-13.65417h94.16667z" fill="#b2b9e1"></path><path d="M160.08333,54.14583c0,-6.59167 -21.1875,-11.77083 -47.08333,-11.77083c-25.89583,0 -47.08333,5.17917 -47.08333,11.77083c0,6.59167 21.1875,11.77083 47.08333,11.77083c25.89583,0 47.08333,-5.17917 47.08333,-11.77083z" fill="#c5cae9"></path><path d="M150.66667,54.14583c0,-3.76667 -16.95,-7.0625 -37.66667,-7.0625c-20.71667,0 -37.66667,3.29583 -37.66667,7.0625c0,3.76667 16.95,7.0625 37.66667,7.0625c20.71667,0 37.66667,-3.29583 37.66667,-7.0625z" fill="#5c6bc0"></path><path d="M174.20833,12.24167l-2.35417,-2.825c-1.88333,0.94167 -31.075,11.3 -41.43333,38.60833c-0.94167,1.88333 -2.825,8.00417 -3.76667,12.7125c4.2375,-0.47083 8.00417,-0.94167 11.3,-1.4125c0.94167,-2.35417 1.88333,-7.0625 2.35417,-7.53333c8.94583,-24.0125 33.42917,-39.55 33.9,-39.55z" fill="#b2b9e1"></path><path d="M159.6125,27.30833l-0.94167,0.94167c-1.4125,1.4125 -3.76667,0.94167 -5.17917,-0.47083l-3.29583,-3.76667c-1.4125,-1.4125 -0.94167,-3.76667 0.47083,-5.17917l0.94167,-0.94167c1.4125,-0.94167 3.76667,-0.47083 5.17917,0.94167l2.825,3.76667c1.4125,1.4125 1.4125,3.29583 0,4.70833z" fill="#7986cb"></path><path d="M128.06667,56.02917c-0.47083,1.88333 -0.94167,3.29583 -1.4125,4.70833c4.2375,-0.47083 8.00417,-0.94167 11.3,-1.4125c0.47083,-1.4125 0.94167,-3.29583 1.4125,-5.17917c-3.29583,0.94167 -7.0625,1.4125 -11.3,1.88333z" fill="#9fa8da"></path></g><g fill="#333333" stroke="none" stroke-width="1"><path d="M101.695,112.17v1.7c0,2.64667 -0.44667,4.95667 -1.34,6.93c-0.88667,1.97333 -2.14667,3.48 -3.78,4.52c-1.63333,1.04 -3.54,1.56 -5.72,1.56v0c-2.12667,0 -4.01333,-0.52333 -5.66,-1.57c-1.64667,-1.04 -2.92333,-2.53 -3.83,-4.47c-0.90667,-1.93333 -1.37333,-4.17333 -1.4,-6.72v0v-1.95c0,-2.6 0.45,-4.89667 1.35,-6.89c0.90667,-1.98667 2.18667,-3.51 3.84,-4.57c1.64667,-1.06 3.53333,-1.59 5.66,-1.59v0c2.16667,0 4.07667,0.52333 5.73,1.57c1.65333,1.04667 2.92333,2.56333 3.81,4.55c0.89333,1.98667 1.34,4.29667 1.34,6.93zM98.145,114.13v-2c0,-3.20667 -0.64333,-5.66667 -1.93,-7.38c-1.28667,-1.71333 -3.08667,-2.57 -5.4,-2.57v0c-2.24667,0 -4.01667,0.85667 -5.31,2.57c-1.29333,1.71333 -1.96,4.09333 -2,7.14v0v1.98c0,3.10667 0.65333,5.54667 1.96,7.32c1.30667,1.78 3.10333,2.67 5.39,2.67v0c2.3,0 4.08,-0.84 5.34,-2.52c1.26667,-1.67333 1.91667,-4.07667 1.95,-7.21zM104.675,124.71v0c0,-0.59333 0.17667,-1.08667 0.53,-1.48c0.35333,-0.4 0.88333,-0.6 1.59,-0.6c0.70667,0 1.24,0.2 1.6,0.6c0.36667,0.39333 0.55,0.88667 0.55,1.48v0c0,0.56667 -0.18333,1.04333 -0.55,1.43c-0.36,0.38 -0.89333,0.57 -1.6,0.57c-0.70667,0 -1.23667,-0.19 -1.59,-0.57c-0.35333,-0.38667 -0.53,-0.86333 -0.53,-1.43zM135.905,99.49v27.02h-3.58v-12.49h-13.62v12.49h-3.56v-27.02h3.56v11.62h13.62v-11.62zM141.775,124.71v0c0,-0.59333 0.17333,-1.08667 0.52,-1.48c0.35333,-0.4 0.88333,-0.6 1.59,-0.6c0.70667,0 1.24333,0.2 1.61,0.6c0.36,0.39333 0.54,0.88667 0.54,1.48v0c0,0.56667 -0.18,1.04333 -0.54,1.43c-0.36667,0.38 -0.90333,0.57 -1.61,0.57c-0.70667,0 -1.23667,-0.19 -1.59,-0.57c-0.34667,-0.38667 -0.52,-0.86333 -0.52,-1.43z"></path></g><path d="M69.965,136.88v-47.76h86.07v47.76z" fill="#ff0000" stroke="#50e3c2" stroke-width="3" opacity="0"></path>
</g>
</svg>