<?xml version="1.0" encoding="utf-8"?>
<!-- Generator: Adobe Illustrator 22.1.0, SVG Export Plug-In . SVG Version: 6.00 Build 0)  -->

<svg xmlns="http://www.w3.org/2000/svg" x="0px" y="0px" viewBox="0 0 48 48" style=" fill:#000000;">
    <path fill="#e96924" d="M42,30.4C42,40.3,33.9,45,24,45S6,40.3,6,30.4c0-5.8,2.7-11.7,7-15.7c2.4-0.3,19.6-0.3,22.1,0.1 C39.3,18.8,42,24.6,42,30.4z"></path><path fill="#ef905c" d="M12.5,34c-0.3,0-0.5-0.2-0.5-0.5c0-8.5,3-12.2,3.1-12.3c0.2-0.2,0.5-0.2,0.7-0.1 c0.2,0.2,0.2,0.5,0.1,0.7c0,0-2.9,3.6-2.9,11.7C13,33.8,12.8,34,12.5,34z"></path><path fill="#de613a" d="M35.1,14.8c-2.5-0.5-19.7-0.5-22.1-0.1c-0.6,0.6-1.2,1.2-1.7,1.8c0.2,0.2,0.5,0.4,0.7,0.6 c1.8,0.9,5.3,2,12,2c6.6,0,10.1-1.1,11.9-2c0.3-0.2,0.5-0.4,0.7-0.6C36.2,15.9,35.7,15.3,35.1,14.8z"></path><path fill="#b2b9e1" d="M35.8,14.4c0.4,0.6,0.1,1.4-0.5,1.7C33.9,16.9,30.6,18,24,18s-9.9-1.1-11.4-1.9 c-0.6-0.3-0.8-1.1-0.5-1.7l1.8-2.9h20L35.8,14.4z"></path><path fill="#c5cae9" d="M34,11.5C34,10.1,29.5,9,24,9s-10,1.1-10,2.5S18.5,14,24,14S34,12.9,34,11.5z"></path><path fill="#5c6bc0" d="M32,11.5c0-0.8-3.6-1.5-8-1.5s-8,0.7-8,1.5s3.6,1.5,8,1.5S32,12.3,32,11.5z"></path><path fill="#b2b9e1" d="M37,2.6L36.5,2c-0.4,0.2-6.6,2.4-8.8,8.2c-0.2,0.4-0.6,1.7-0.8,2.7c0.9-0.1,1.7-0.2,2.4-0.3 c0.2-0.5,0.4-1.5,0.5-1.6C31.7,5.9,36.9,2.6,37,2.6z"></path><path fill="#7986cb" d="M33.9,5.8L33.7,6c-0.3,0.3-0.8,0.2-1.1-0.1l-0.7-0.8c-0.3-0.3-0.2-0.8,0.1-1.1l0.2-0.2 C32.5,3.6,33,3.7,33.3,4l0.6,0.8C34.2,5.1,34.2,5.5,33.9,5.8z"></path><path fill="#9fa8da" d="M27.2,11.9c-0.1,0.4-0.2,0.7-0.3,1c0.9-0.1,1.7-0.2,2.4-0.3c0.1-0.3,0.2-0.7,0.3-1.1 C28.9,11.7,28.1,11.8,27.2,11.9z">
    </path>
</svg>